<?xml version='1.0' encoding='iso-8859-1'?>
<svg version="1.1" xmlns="http://www.w3.org/2000/svg" viewBox="0 0 8.64 8.64" xmlns:xlink="http://www.w3.org/1999/xlink" enable-background="new 0 0 8.64 8.64">
  <g>
    <g>
      <path d="m7.759,1.056c-0.265-0.446-0.787-0.653-1.279-0.555v-0.501h-4.32v0.501c-0.492-0.098-1.014,0.109-1.279,0.555-0.332,0.558-0.135,1.272 0.44,1.594l.84,.472v-0.002c0,1.061 0.859,1.92 1.92,1.92v2.16h-1.922c0,0-0.001,0-0.002,0-0.087-0.004-0.174,0.037-0.22,0.116l-.465,.952c-0.025,0.043-0.031,0.112-0.032,0.133 0.001,0.132 0.108,0.239 0.24,0.239h5.28c0.133,0 0.24-0.107 0.24-0.24 0-0.06-0.022-0.113-0.059-0.155l-.453-.929c-0.045-0.075-0.126-0.116-0.209-0.116h-1.919v-2.16c1.061,0 1.92-0.859 1.92-1.92v0.002l.841-.472c0.573-0.322 0.77-1.036 0.438-1.594zm-5.599,1.527l-.6-.337c-0.344-0.194-0.462-0.621-0.264-0.956 0.177-0.298 0.543-0.42 0.864-0.31v1.603zm4.176,5.097l.235,.48h-4.516l.234-.48h4.047zm-.336-4.56c0,0.795-0.645,1.44-1.44,1.44h-0.48c-0.795,0-1.441-0.645-1.441-1.44v-2.64h3.361v2.64zm1.08-.874l-.6,.337v-1.603c0.321-0.11 0.687,0.012 0.864,0.31 0.198,0.335 0.08,0.762-0.264,0.956z"/>
    </g>
  </g>
</svg>
